# Blender 4.5.3 LTS
# www.blender.org
mtllib Camera.mtl
o Camera
v 0.972986 -0.706022 0.898191
v 0.831950 -0.566400 1.000000
v 0.972986 0.706022 0.898191
v 0.831950 0.566400 1.000000
v -0.831950 -0.566400 1.000000
v -0.972986 -0.706022 0.898191
v -0.972986 0.706022 0.898191
v -0.831950 0.566400 1.000000
v 0.412869 -0.119529 -1.000000
v 0.483771 -0.191187 -0.945535
v 0.483771 0.191187 -0.945535
v 0.412869 0.119529 -1.000000
v -0.412869 -0.119529 -1.000000
v -0.483771 -0.191187 -0.945535
v -0.483771 0.191187 -0.945535
v -0.412869 0.119529 -1.000000
v -0.215014 -0.000000 1.748462
v -0.270086 -0.000000 0.984986
v -0.152038 -0.152038 1.748462
v -0.190980 -0.190980 0.984986
v 0.000000 -0.215014 1.748462
v 0.000000 -0.270086 0.984986
v 0.152038 -0.152038 1.748462
v 0.190980 -0.190980 0.984986
v 0.215014 0.000000 1.748462
v 0.270086 0.000000 0.984986
v 0.152038 0.152038 1.748462
v 0.190980 0.190980 0.984986
v 0.000000 0.215014 1.748462
v 0.000000 0.270086 0.984986
v -0.152038 0.152038 1.748462
v -0.190980 0.190980 0.984986
v 0.000000 0.000000 2.498135
v -0.369637 -0.000000 1.881891
v -0.328252 -0.000000 1.816990
v -0.232109 -0.232109 1.816990
v -0.261373 -0.261373 1.881891
v 0.000000 -0.328252 1.816990
v 0.000000 -0.369637 1.881891
v 0.232109 -0.232109 1.816990
v 0.261373 -0.261373 1.881891
v 0.328252 0.000000 1.816990
v 0.369637 0.000000 1.881891
v 0.232109 0.232109 1.816990
v 0.261373 0.261373 1.881891
v 0.000000 0.328252 1.816990
v 0.000000 0.369637 1.881891
v -0.232109 0.232109 1.816990
v -0.261373 0.261373 1.881891
v -0.215014 -0.000000 1.090360
v -0.152038 -0.152038 1.090360
v 0.000000 -0.215014 1.090360
v 0.152038 -0.152038 1.090360
v 0.215014 0.000000 1.090360
v 0.152038 0.152038 1.090360
v 0.000000 0.215014 1.090360
v -0.152038 0.152038 1.090360
v -0.856750 0.519246 -0.084129
v 0.856750 0.519246 -0.084129
v 0.856750 -0.519246 -0.084129
v -0.856750 -0.519246 -0.084129
v 0.894482 -0.628932 1.000000
v -0.894482 -0.628932 1.000000
v 0.894482 0.628932 1.000000
v -0.894482 0.628932 1.000000
v 0.789859 -0.537744 0.960291
v -0.789859 -0.537744 0.960291
v 0.789859 0.537744 0.960291
v -0.789859 0.537744 0.960291
vn -0.0000 0.9663 -0.2576
vn -0.0000 0.9824 -0.1868
vn 0.9719 -0.0000 -0.2354
vn 0.9931 -0.0000 -0.1175
vn -0.9719 -0.0000 -0.2354
vn -0.9177 -0.0000 -0.3973
vn -0.4565 -0.4180 0.7855
vn 0.4565 -0.4180 0.7855
vn 0.3826 -0.5077 0.7719
vn -0.3826 -0.5077 0.7719
vn -0.0000 -0.7972 0.6037
vn 0.7919 -0.0000 0.6106
vn -0.0000 0.7972 0.6037
vn -0.7919 -0.0000 0.6106
vn -0.0000 -0.0000 -1.0000
vn -0.6092 -0.0000 -0.7930
vn -0.0000 -0.6051 -0.7961
vn -0.0000 0.6051 -0.7961
vn 0.6092 -0.0000 -0.7930
vn -0.0000 -0.9663 -0.2576
vn -0.0000 -0.9345 -0.3559
vn -0.8980 -0.3720 0.2350
vn -0.8320 -0.3446 0.4348
vn -0.3720 -0.8980 0.2350
vn -0.3446 -0.8320 0.4348
vn 0.3720 -0.8980 0.2350
vn 0.3446 -0.8320 0.4348
vn 0.8980 -0.3720 0.2350
vn 0.8320 -0.3446 0.4348
vn 0.8980 0.3720 0.2350
vn 0.8320 0.3446 0.4348
vn 0.3720 0.8980 0.2350
vn 0.3446 0.8320 0.4348
vn -0.3720 0.8980 0.2350
vn -0.3446 0.8320 0.4348
vn -0.8980 0.3720 0.2350
vn -0.8320 0.3446 0.4348
vn -0.0000 -0.5177 -0.8555
vn 0.3661 -0.3661 -0.8555
vn 0.8081 -0.3347 0.4847
vn 0.3347 0.8081 0.4847
vn -0.5177 -0.0000 -0.8555
vn -0.3661 -0.3661 -0.8555
vn -0.8081 0.3347 0.4847
vn 0.3347 -0.8081 0.4847
vn -0.3347 0.8081 0.4847
vn 0.8081 0.3347 0.4847
vn -0.3661 0.3661 -0.8555
vn -0.3347 -0.8081 0.4847
vn 0.3661 0.3661 -0.8555
vn -0.0000 0.5177 -0.8555
vn 0.5177 -0.0000 -0.8555
vn -0.7960 -0.3297 -0.5076
vn -0.3297 -0.7960 -0.5076
vn 0.3297 -0.7960 -0.5076
vn 0.7960 -0.3297 -0.5076
vn 0.7960 0.3297 -0.5076
vn 0.3297 0.7960 -0.5076
vn -0.3297 0.7960 -0.5076
vn -0.7960 0.3297 -0.5076
vn -0.8081 -0.3347 0.4847
vn -0.9239 0.3827 -0.0000
vn -0.3827 0.9239 -0.0000
vn 0.3827 0.9239 -0.0000
vn 0.9239 0.3827 -0.0000
vn 0.9239 -0.3827 -0.0000
vn 0.3827 -0.9239 -0.0000
vn -0.3827 -0.9239 -0.0000
vn -0.9239 -0.3827 -0.0000
vn -0.0000 -0.9824 -0.1868
vn -0.9931 -0.0000 -0.1175
vn 0.9177 -0.0000 -0.3973
vn -0.0000 0.9345 -0.3559
vn -0.0000 -0.0000 1.0000
vn 0.4565 0.4180 0.7855
vn -0.4565 0.4180 0.7855
vn -0.3826 0.5077 0.7719
vn 0.3826 0.5077 0.7719
vt 0.783526 0.412889
vt 0.617277 0.439118
vt 0.617277 0.000000
vt 0.783526 0.026229
vt 0.715606 0.676670
vt 0.481265 0.676670
vt 0.439118 0.456336
vt 0.757753 0.456336
vt 0.011794 0.674888
vt 0.240202 0.674888
vt 0.130428 0.803554
vt 0.046328 0.803554
vt 0.435327 0.465456
vt 0.435327 0.840923
vt 0.428529 0.831425
vt 0.428529 0.474954
vt 0.000000 0.448254
vt 0.439118 0.448254
vt 0.421403 0.465456
vt 0.017715 0.465456
vt 0.456514 0.439118
vt 0.740357 0.439118
vt 0.588586 0.421403
vt 0.588586 0.017715
vt 0.310569 0.494151
vt 0.000000 0.494151
vt 0.016002 0.465456
vt 0.292660 0.465456
vt 0.993644 0.705310
vt 0.949200 0.699876
vt 0.949200 0.516510
vt 0.993644 0.521945
vt 1.000000 0.724483
vt 0.928912 0.715791
vt 0.328724 0.016317
vt 0.110394 0.016317
vt 0.126393 0.000000
vt 0.312725 0.000000
vt 0.928912 0.500937
vt 0.555293 0.886700
vt 0.641578 0.886700
vt 0.625408 0.902915
vt 0.571463 0.902915
vt 0.026229 0.223637
vt 0.412889 0.223637
vt 0.382087 0.920845
vt 0.383392 0.947634
vt 0.337494 0.941439
vt 0.345547 0.915914
vt 0.310569 0.921873
vt 0.324112 0.900337
vt 0.828424 0.290558
vt 0.826881 0.309858
vt 0.783526 0.311394
vt 0.793908 0.291781
vt 0.403857 0.761452
vt 0.412644 0.781898
vt 0.369549 0.776990
vt 0.369549 0.757545
vt 0.326453 0.781898
vt 0.335241 0.761452
vt 0.766540 0.853863
vt 0.757753 0.829022
vt 0.800848 0.819622
vt 0.800848 0.846380
vt 0.843944 0.829022
vt 0.835157 0.853863
vt 0.412326 0.912243
vt 0.421376 0.936828
vt 0.839783 0.148415
vt 0.805267 0.149638
vt 0.788841 0.128368
vt 0.841534 0.126501
vt 0.428529 0.582939
vt 0.369549 0.576222
vt 0.369549 0.465456
vt 0.241481 0.920712
vt 0.191355 0.954350
vt 0.131774 0.803554
vt 0.901531 0.944798
vt 0.930408 0.953509
vt 0.922059 0.974624
vt 0.877973 0.961326
vt 0.131774 0.963080
vt 0.078128 0.956501
vt 0.842862 0.109883
vt 0.783526 0.111985
vt 0.851643 0.000000
vt 0.131774 0.964059
vt 0.310569 0.582939
vt 0.889569 0.913814
vt 0.859712 0.914023
vt 0.023546 0.924277
vt -0.000000 0.885282
vt 0.930408 0.860040
vt 0.901531 0.878706
vt 0.877973 0.860426
vt 0.922059 0.831929
vt 0.403857 0.618671
vt 0.369549 0.614764
vt 0.369549 0.592871
vt 0.421925 0.598836
vt 0.873666 0.155104
vt 0.893261 0.136712
vt 0.335241 0.618671
vt 0.317172 0.598836
vt 0.072131 0.963097
vt 0.023660 0.934480
vt 0.901111 0.121382
vt 0.864507 0.851711
vt 0.914152 0.819622
vt 0.843944 0.912066
vt 0.864507 0.965332
vt 0.421376 0.781898
vt 0.391137 0.790500
vt 0.800848 0.972626
vt 0.835157 0.980110
vt 0.766540 0.980110
vt 0.862307 0.297246
vt 0.354598 0.785568
vt 0.757753 0.819622
vt 0.757753 0.439118
vt 0.446549 0.031825
vt 0.446549 0.407293
vt 0.439118 0.421403
vt 0.439118 0.017715
vt 0.581156 0.031825
vt 0.581156 0.407293
vt 0.457571 0.041323
vt 0.585368 0.041323
vt 0.585368 0.397795
vt 0.457571 0.397795
vt 0.913565 0.255622
vt 0.913565 0.000000
vt 0.919569 0.006466
vt 0.919569 0.249156
vt 0.913565 0.249151
vt 0.901111 0.243725
vt 0.901111 0.007180
s 1
usemtl Material.001
f 58/1/1 7/2/2 3/3/2 59/4/1
f 60/5/3 59/6/3 3/7/4 1/8/4
f 61/9/5 58/10/5 15/11/6 14/12/6
f 4/13/7 8/14/8 69/15/9 68/16/10
f 6/17/11 1/18/11 62/19/11 63/20/11
f 1/8/12 3/7/12 64/21/12 62/22/12
f 3/3/13 7/2/13 65/23/13 64/24/13
f 7/25/14 6/26/14 63/27/14 65/28/14
f 13/29/15 16/30/15 12/31/15 9/32/15
f 16/30/16 13/29/16 14/33/16 15/34/16
f 10/35/17 14/36/17 13/37/17 9/38/17
f 15/34/18 11/39/18 12/31/18 16/30/18
f 11/40/19 10/41/19 9/42/19 12/43/19
f 61/44/20 14/36/21 10/35/21 60/45/20
f 50/46/22 18/47/23 20/48/23 51/49/22
f 51/49/24 20/48/25 22/50/25 52/51/24
f 52/52/26 22/53/27 24/54/27 53/55/26
f 53/56/28 24/57/29 26/58/29 54/59/28
f 54/59/30 26/58/31 28/60/31 55/61/30
f 55/62/32 28/63/33 30/64/33 56/65/32
f 56/65/34 30/64/35 32/66/35 57/67/34
f 57/68/36 32/69/37 18/47/37 50/46/36
f 21/70/38 23/71/39 40/72/39 38/73/38
f 41/74/40 43/75/40 33/76/40
f 45/77/41 47/78/41 33/79/41
f 17/80/42 19/81/43 36/82/43 35/83/42
f 49/84/44 34/85/44 33/79/44
f 39/86/45 41/87/45 33/88/45
f 47/78/46 49/89/46 33/79/46
f 43/75/47 45/90/47 33/76/47
f 31/91/48 17/80/42 35/83/42 48/92/48
f 37/93/49 39/94/49 33/79/49
f 27/95/50 29/96/51 46/97/51 44/98/50
f 23/99/39 25/100/52 42/101/52 40/102/39
f 19/103/43 21/70/38 38/73/38 36/104/43
f 29/96/51 31/91/48 48/92/48 46/97/51
f 25/100/52 27/105/50 44/106/50 42/101/52
f 35/107/53 36/108/53 37/93/53 34/85/53
f 36/104/54 38/73/54 39/86/54 37/109/54
f 38/73/55 40/72/55 41/87/55 39/86/55
f 40/102/56 42/101/56 43/75/56 41/74/56
f 42/101/57 44/106/57 45/90/57 43/75/57
f 44/98/58 46/97/58 47/110/58 45/111/58
f 46/97/59 48/92/59 49/112/59 47/110/59
f 48/92/60 35/83/60 34/113/60 49/112/60
f 34/85/61 37/93/61 33/79/61
f 31/114/62 57/68/36 50/46/36 17/115/62
f 29/116/63 56/65/34 57/67/34 31/117/63
f 27/118/64 55/62/32 56/65/32 29/116/64
f 25/100/65 54/59/30 55/61/30 27/105/65
f 23/99/66 53/56/28 54/59/28 25/100/66
f 21/70/67 52/52/26 53/55/26 23/71/67
f 19/103/68 51/119/24 52/52/24 21/70/68
f 17/115/69 50/46/22 51/49/22 19/120/69
f 6/17/70 61/44/20 60/45/20 1/18/70
f 6/26/71 7/25/71 58/10/5 61/9/5
f 10/41/72 11/40/72 59/6/3 60/5/3
f 15/34/73 58/121/1 59/122/1 11/39/73
f 2/123/74 5/124/74 63/125/74 62/126/74
f 4/127/74 2/123/74 62/126/74 64/24/74
f 8/128/74 4/127/74 64/24/74 65/23/74
f 5/124/74 8/128/74 65/23/74 63/125/74
f 66/129/74 68/130/74 69/131/74 67/132/74
f 5/124/75 2/123/76 66/129/77 67/132/78
f 8/133/8 5/134/75 67/135/78 69/136/9
f 2/134/76 4/137/7 68/138/10 66/139/77
