# Blender 4.4.3
# www.blender.org
mtllib Camera.mtl
o Camera
v -0.898191 -0.706022 0.972986
v -1.000000 -0.628932 0.894482
v -0.898191 0.706022 0.972986
v -1.000000 0.628932 0.894482
v -1.000000 -0.628932 -0.894482
v -0.898191 -0.706022 -0.972986
v -0.898191 0.706022 -0.972986
v -1.000000 0.628932 -0.894482
v 1.000000 -0.119529 0.412869
v 0.945535 -0.191187 0.483771
v 0.945535 0.191187 0.483771
v 1.000000 0.119529 0.412869
v 1.000000 -0.119529 -0.412869
v 0.945535 -0.191187 -0.483771
v 0.945535 0.191187 -0.483771
v 1.000000 0.119529 -0.412869
v -1.816990 -0.000000 -0.215014
v -0.984986 0.000000 -0.215014
v -1.816990 -0.152038 -0.152038
v -0.984986 -0.152038 -0.152038
v -1.816990 -0.215014 0.000000
v -0.984986 -0.215014 0.000000
v -1.816990 -0.152038 0.152038
v -0.984986 -0.152038 0.152038
v -1.816990 -0.000000 0.215014
v -0.984986 0.000000 0.215014
v -1.816990 0.152038 0.152038
v -0.984986 0.152038 0.152038
v -1.816990 0.215014 0.000000
v -0.984986 0.215014 0.000000
v -1.816990 0.152038 -0.152038
v -0.984986 0.152038 -0.152038
v -2.498135 -0.000000 -0.000000
v -1.881891 -0.000000 -0.369637
v -1.816990 -0.000000 -0.328252
v -1.816990 -0.232109 -0.232109
v -1.881891 -0.261373 -0.261373
v -1.816990 -0.328252 0.000000
v -1.881891 -0.369637 -0.000000
v -1.816990 -0.232109 0.232109
v -1.881891 -0.261373 0.261373
v -1.816990 -0.000000 0.328252
v -1.881891 -0.000000 0.369637
v -1.816990 0.232109 0.232109
v -1.881891 0.261373 0.261373
v -1.816990 0.328252 0.000000
v -1.881891 0.369637 -0.000000
v -1.816990 0.232109 -0.232109
v -1.881891 0.261373 -0.261373
vn 0.2689 0.9632 -0.0000
vn 0.2565 -0.0000 0.9666
vn 0.2565 -0.0000 -0.9666
vn -1.0000 -0.0000 -0.0000
vn -0.6037 -0.7972 -0.0000
vn -0.6106 -0.0000 0.7919
vn -0.6037 0.7972 -0.0000
vn -0.6106 -0.0000 -0.7919
vn 1.0000 -0.0000 -0.0000
vn 0.7930 -0.0000 -0.6092
vn 0.7961 -0.6051 -0.0000
vn 0.7961 0.6051 -0.0000
vn 0.7930 -0.0000 0.6092
vn 0.2689 -0.9632 -0.0000
vn -0.0000 -0.3827 -0.9239
vn -0.0000 -0.9239 -0.3827
vn -0.0000 -0.9239 0.3827
vn -0.0000 -0.3827 0.9239
vn -0.0000 0.3827 0.9239
vn -0.0000 0.9239 0.3827
vn -0.0000 0.9239 -0.3827
vn -0.0000 0.3827 -0.9239
vn -0.4847 -0.3347 0.8081
vn -0.4847 0.8081 0.3347
vn -0.4847 0.3347 -0.8081
vn -0.4847 -0.8081 0.3347
vn -0.4847 0.8081 -0.3347
vn -0.4847 0.3347 0.8081
vn -0.4847 -0.8081 -0.3347
vn 0.5076 -0.3297 -0.7960
vn 0.5076 -0.7960 -0.3297
vn 0.5076 -0.7960 0.3297
vn 0.5076 -0.3297 0.7960
vn 0.5076 0.3297 0.7960
vn 0.5076 0.7960 0.3297
vn 0.5076 0.7960 -0.3297
vn 0.5076 0.3297 -0.7960
vn -0.4847 -0.3347 -0.8081
vt 0.631808 0.500000
vt 0.862274 0.500000
vt 0.862274 0.750000
vt 0.631808 0.750000
vt 0.375000 0.756808
vt 0.625000 0.756808
vt 0.625000 0.987274
vt 0.375000 0.987274
vt 0.375000 0.262726
vt 0.625000 0.262726
vt 0.625000 0.493192
vt 0.375000 0.493192
vt 0.392959 0.013190
vt 0.607041 0.013190
vt 0.607041 0.236810
vt 0.392959 0.236810
vt 0.375000 0.246623
vt 0.375000 0.003377
vt 0.379838 0.000000
vt 0.620162 0.000000
vt 0.625000 0.003377
vt 0.625000 0.246623
vt 0.415097 0.515035
vt 0.584903 0.515035
vt 0.584903 0.734965
vt 0.415097 0.734965
vt 0.368192 0.750000
vt 0.368192 0.500000
vt 0.137726 0.500000
vt 0.137726 0.750000
vt 1.000000 0.500000
vt 1.000000 1.000000
vt 0.875000 1.000000
vt 0.875000 0.500000
vt 0.750000 1.000000
vt 0.750000 0.500000
vt 0.625000 1.000000
vt 0.625000 0.500000
vt 0.500000 1.000000
vt 0.500000 0.500000
vt 0.375000 1.000000
vt 0.375000 0.500000
vt 0.250000 1.000000
vt 0.250000 0.500000
vt 0.125000 1.000000
vt 0.125000 0.500000
vt 0.000000 1.000000
vt 0.000000 0.500000
vt 0.511910 0.500000
vt 0.261910 0.500000
vt 0.011910 0.500000
vt 0.636910 0.500000
vt 0.136910 0.500000
vt 0.386910 0.500000
vt 0.761910 0.500000
vt 0.886910 0.500000
s 0
f 15/1/1 7/2/1 3/3/1 11/4/1
f 10/5/2 11/6/2 3/7/2 1/8/2
f 6/9/3 7/10/3 15/11/3 14/12/3
f 2/13/4 4/14/4 8/15/4 5/16/4
f 6/17/5 1/18/5 2/13/5 5/16/5
f 1/19/6 3/20/6 4/14/6 2/13/6
f 3/21/7 7/22/7 8/15/7 4/14/7
f 7/10/8 6/9/8 5/16/8 8/15/8
f 13/23/9 16/24/9 12/25/9 9/26/9
f 16/24/10 13/23/10 14/12/10 15/11/10
f 10/27/11 14/28/11 13/23/11 9/26/11
f 15/1/12 11/4/12 12/25/12 16/24/12
f 11/6/13 10/5/13 9/26/13 12/25/13
f 6/29/14 14/28/14 10/27/14 1/30/14
f 17/31/15 18/32/15 20/33/15 19/34/15
f 19/34/16 20/33/16 22/35/16 21/36/16
f 21/36/17 22/35/17 24/37/17 23/38/17
f 23/38/18 24/37/18 26/39/18 25/40/18
f 25/40/19 26/39/19 28/41/19 27/42/19
f 27/42/20 28/41/20 30/43/20 29/44/20
f 29/44/21 30/43/21 32/45/21 31/46/21
f 31/46/22 32/45/22 18/47/22 17/48/22
f 21/36/9 23/38/9 40/38/9 38/36/9
f 41/38/23 43/49/23 33/38/23
f 45/42/24 47/50/24 33/42/24
f 17/31/9 19/34/9 36/34/9 35/31/9
f 49/46/25 34/51/25 33/46/25
f 39/36/26 41/52/26 33/36/26
f 47/44/27 49/53/27 33/44/27
f 43/40/28 45/54/28 33/40/28
f 31/46/9 17/48/9 35/48/9 48/46/9
f 37/34/29 39/55/29 33/34/29
f 27/42/9 29/44/9 46/44/9 44/42/9
f 23/38/9 25/40/9 42/40/9 40/38/9
f 19/34/9 21/36/9 38/36/9 36/34/9
f 29/44/9 31/46/9 48/46/9 46/44/9
f 25/40/9 27/42/9 44/42/9 42/40/9
f 35/31/30 36/34/30 37/56/30 34/31/30
f 36/34/31 38/36/31 39/55/31 37/34/31
f 38/36/32 40/38/32 41/52/32 39/36/32
f 40/38/33 42/40/33 43/49/33 41/38/33
f 42/40/34 44/42/34 45/54/34 43/40/34
f 44/42/35 46/44/35 47/50/35 45/42/35
f 46/44/36 48/46/36 49/53/36 47/44/36
f 48/46/37 35/48/37 34/51/37 49/46/37
f 34/31/38 37/56/38 33/31/38
