<?xml version="1.0" encoding="UTF-8" standalone="no"?>
<!-- Created with Inkscape (http://www.inkscape.org/) -->

<svg
   width="64mm"
   height="64mm"
   viewBox="0 0 64 64"
   version="1.1"
   id="svg1"
   inkscape:version="1.4.2 (f4327f4, 2025-05-13)"
   sodipodi:docname="file.svg"
   xmlns:inkscape="http://www.inkscape.org/namespaces/inkscape"
   xmlns:sodipodi="http://sodipodi.sourceforge.net/DTD/sodipodi-0.dtd"
   xmlns="http://www.w3.org/2000/svg"
   xmlns:svg="http://www.w3.org/2000/svg">
  <sodipodi:namedview
     id="namedview1"
     pagecolor="#505050"
     bordercolor="#eeeeee"
     borderopacity="1"
     inkscape:showpageshadow="0"
     inkscape:pageopacity="0"
     inkscape:pagecheckerboard="0"
     inkscape:deskcolor="#505050"
     inkscape:document-units="mm"
     inkscape:zoom="2.8756734"
     inkscape:cx="112.66926"
     inkscape:cy="123.62322"
     inkscape:window-width="1920"
     inkscape:window-height="1009"
     inkscape:window-x="-8"
     inkscape:window-y="-8"
     inkscape:window-maximized="1"
     inkscape:current-layer="layer1" />
  <defs
     id="defs1" />
  <g
     inkscape:label="Camada 1"
     inkscape:groupmode="layer"
     id="layer1">
    <path
       id="rect1"
       style="fill:#ffffff;stroke:#333333;stroke-width:1.04833;stroke-linecap:square"
       d="m 13.814613,2.6161723 27.329884,0.1840149 c 0.05949,0.089507 12.06429,9.9099968 12.0674,9.6752058 L 52.659852,61.46141 c -6.64e-4,0.05896 -0.04747,0.106434 -0.106433,0.106434 H 13.814613 c -0.05896,0 -0.106433,-0.04747 -0.106433,-0.106434 V 2.7226054 c 0,-0.058964 0.04747,-0.1068301 0.106433,-0.1064331 z"
       sodipodi:nodetypes="sccssssss" />
    <path
       style="fill:#ffffff;fill-opacity:0;stroke:#333333;stroke-width:0.998272;stroke-linecap:square"
       d="M 41.313364,3.0353167 41.126493,12.51555 53.273224,12.60584"
       id="path1"
       sodipodi:nodetypes="ccc" />
    <path
       style="fill:#ffffff;fill-opacity:0;stroke:#333333;stroke-width:0.791682;stroke-linecap:square"
       d="m 16.402036,57.400763 c 17.726423,0.341166 26.022311,0.155713 26.11588,0.14628"
       id="path2"
       sodipodi:nodetypes="cc" />
    <path
       style="fill:#ffffff;fill-opacity:0;stroke:#333333;stroke-width:0.783388;stroke-linecap:square"
       d="m 16.398016,52.396291 c 16.608602,0.356538 24.381355,0.162729 24.469024,0.152871"
       id="path3"
       sodipodi:nodetypes="cc" />
    <path
       style="fill:#ffffff;fill-opacity:0;stroke:#333333;stroke-width:0.778436;stroke-linecap:square"
       d="m 16.395606,48.393622 c 15.98783,0.365714 23.470064,0.166917 23.554456,0.156805"
       id="path4"
       sodipodi:nodetypes="cc" />
    <path
       style="fill:#ffffff;fill-opacity:0;stroke:#333333;stroke-width:0.813014;stroke-linecap:square"
       d="m 16.412264,43.412264 c 21.144775,0.301632 31.040436,0.137669 31.152049,0.129329"
       id="path5"
       sodipodi:nodetypes="cc" />
    <path
       style="fill:#ffffff;fill-opacity:0;stroke:#333333;stroke-width:0.770492;stroke-linecap:square"
       d="m 16.391727,38.389339 c 15.05703,0.380436 22.103654,0.173636 22.183133,0.163117"
       id="path6"
       sodipodi:nodetypes="cc" />
    <path
       style="fill:#ffffff;fill-opacity:0;stroke:#333333;stroke-width:0.813014;stroke-linecap:square"
       d="m 16.412264,34.412264 c 21.144775,0.301632 31.040436,0.137669 31.152049,0.129329"
       id="path7"
       sodipodi:nodetypes="cc" />
    <path
       style="fill:#ffffff;fill-opacity:0;stroke:#333333;stroke-width:0.813014;stroke-linecap:square"
       d="m 16.412264,29.412264 c 21.144775,0.301632 31.040436,0.137669 31.152049,0.129329"
       id="path8"
       sodipodi:nodetypes="cc" />
    <path
       style="fill:#ffffff;fill-opacity:0;stroke:#333333;stroke-width:0.784824;stroke-linecap:square"
       d="m 16.398713,24.397065 c 16.794869,0.353877 24.654793,0.161515 24.743445,0.15173"
       id="path9"
       sodipodi:nodetypes="cc" />
    <path
       style="fill:#ffffff;fill-opacity:0;stroke:#333333;stroke-width:0.805496;stroke-linecap:square"
       d="m 16.40868,20.408211 c 19.83915,0.315564 29.123785,0.144028 29.228506,0.135303"
       id="path10"
       sodipodi:nodetypes="cc" />
    <path
       style="fill:#ffffff;fill-opacity:0;stroke:#333333;stroke-width:0.801266;stroke-linecap:square"
       d="m 16.406653,15.40593 c 19.155455,0.323404 28.120122,0.147606 28.221235,0.138664"
       id="path11"
       sodipodi:nodetypes="cc" />
    <path
       style="fill:#ffffff;fill-opacity:0;stroke:#333333;stroke-width:0.77159;stroke-linecap:square"
       d="m 16.392263,10.38993 c 15.181111,0.378403 22.285804,0.172709 22.365938,0.162246"
       id="path12"
       sodipodi:nodetypes="cc" />
    <path
       style="fill:#ffffff;fill-opacity:0;stroke:#333333;stroke-width:0.781224;stroke-linecap:square"
       d="M 16.396798,6.3952502 C 32.756577,6.7552133 40.412881,6.5595423 40.499236,6.5495894"
       id="path13"
       sodipodi:nodetypes="cc" />
  </g>
</svg>
